<svg xmlns="http://www.w3.org/2000/svg" width="115.943" height="110.784" viewBox="0 0 115.943 110.784">
  <g id="Group_52728" data-name="Group 52728" transform="translate(-2.517 0.001)">
    <g id="InstaCare" style="isolation: isolate">
      <g id="Group_52922" data-name="Group 52922" style="isolation: isolate">
        <path id="Path_156521" data-name="Path 156521" d="M2.517,90.309H7.133V110.43H2.517Z" fill="#242424"/>
        <path id="Path_156522" data-name="Path 156522" d="M23.4,100.164V110.43H18.985v-9.276a3.186,3.186,0,0,0-.4-1.8,1.444,1.444,0,0,0-1.268-.575,1.678,1.678,0,0,0-1.494.793,4.255,4.255,0,0,0-.517,2.309v8.553H10.9V98.662q0-1.3-.035-1.982t-.106-1.274h4.021c.057.453.1.865.121,1.239s.035.724.035,1.054a4.018,4.018,0,0,1,1.636-1.911,4.792,4.792,0,0,1,2.57-.694,3.923,3.923,0,0,1,3.172,1.289A5.715,5.715,0,0,1,23.4,100.164Z" fill="#242424"/>
        <path id="Path_156523" data-name="Path 156523" d="M35.609,95.731,35.538,99a7.851,7.851,0,0,0-1.678-.672,6.432,6.432,0,0,0-1.65-.22,2.661,2.661,0,0,0-1.515.355,1.2,1.2,0,0,0-.509,1.061q0,.865,2.138,1.714a8.3,8.3,0,0,1,3.4,2.018,4.365,4.365,0,0,1,.722,2.683,4.307,4.307,0,0,1-1.593,3.576,7.114,7.114,0,0,1-4.524,1.266,11.424,11.424,0,0,1-1.94-.177,16.189,16.189,0,0,1-2.152-.53l.028-3.555a9.09,9.09,0,0,0,2.011.92,6.691,6.691,0,0,0,2.025.327,2.8,2.8,0,0,0,1.614-.4,1.281,1.281,0,0,0,.581-1.112q0-.877-2.054-1.67c-.273-.1-.486-.185-.637-.241a7.469,7.469,0,0,1-2.895-1.791,3.68,3.68,0,0,1-.815-2.472,4.612,4.612,0,0,1,1.48-3.645,6,6,0,0,1,4.114-1.31,13.174,13.174,0,0,1,1.954.148A12.6,12.6,0,0,1,35.609,95.731Z" fill="#242424"/>
        <path id="Path_156524" data-name="Path 156524" d="M44.162,91v4.4h2.874v3.1H44.162v6.272a4.208,4.208,0,0,0,.368,2.174,1.509,1.509,0,0,0,1.317.518,3.756,3.756,0,0,0,.594-.057q.34-.057.822-.17V110.4q-.793.156-1.5.234a12.2,12.2,0,0,1-1.331.078,4.723,4.723,0,0,1-3.6-1.14q-1.041-1.14-1.041-4.538V98.507H37.322v-3.1h2.464V92.361Z" fill="#242424"/>
        <path id="Path_156525" data-name="Path 156525" d="M61.182,101.82v5.537q0,.977.043,1.7t.141,1.373h-4.12l-.17-1.94a5.945,5.945,0,0,1-1.99,1.7,5.34,5.34,0,0,1-2.457.567,4.119,4.119,0,0,1-3.15-1.276,4.679,4.679,0,0,1-1.2-3.341,4.486,4.486,0,0,1,1.841-3.852,8.888,8.888,0,0,1,5.3-1.345h1.473v-.424a2.237,2.237,0,0,0-.737-1.82,3.3,3.3,0,0,0-2.166-.616,6.12,6.12,0,0,0-2.032.354,6.462,6.462,0,0,0-1.876,1.034l-.227-3.342a18.324,18.324,0,0,1,2.684-.772,12.642,12.642,0,0,1,2.5-.262q3.426,0,4.786,1.43T61.182,101.82Zm-4.29,1.558q-.27-.028-.559-.042t-.744-.015a3.912,3.912,0,0,0-2.379.609,2.081,2.081,0,0,0-.807,1.77,2,2,0,0,0,.524,1.466,1.935,1.935,0,0,0,1.444.531,2.2,2.2,0,0,0,1.905-.843,4.483,4.483,0,0,0,.616-2.626Z" fill="#242424"/>
        <path id="Path_156526" data-name="Path 156526" d="M78.089,90.917l-.227,3.767a7.213,7.213,0,0,0-1.826-.822,7.353,7.353,0,0,0-2-.255,4.636,4.636,0,0,0-3.887,1.756,7.934,7.934,0,0,0-1.366,4.971,8.009,8.009,0,0,0,1.409,5.068,4.817,4.817,0,0,0,4.014,1.786,6.458,6.458,0,0,0,1.884-.284A8.34,8.34,0,0,0,78,106.025l.2,3.881a11.9,11.9,0,0,1-2.251.637,13.806,13.806,0,0,1-2.464.213,9.023,9.023,0,0,1-6.981-2.818,10.8,10.8,0,0,1-2.591-7.6,10.8,10.8,0,0,1,2.57-7.548,8.794,8.794,0,0,1,6.846-2.832,11.822,11.822,0,0,1,2.372.241A13.829,13.829,0,0,1,78.089,90.917Z" fill="#242424"/>
        <path id="Path_156527" data-name="Path 156527" d="M92.476,101.82v5.537q0,.977.043,1.7t.141,1.373H88.539l-.17-1.94a5.933,5.933,0,0,1-1.989,1.7,5.34,5.34,0,0,1-2.457.567,4.121,4.121,0,0,1-3.151-1.276,4.683,4.683,0,0,1-1.2-3.341,4.484,4.484,0,0,1,1.841-3.852,8.886,8.886,0,0,1,5.3-1.345h1.473v-.424a2.24,2.24,0,0,0-.737-1.82,3.3,3.3,0,0,0-2.167-.616,6.129,6.129,0,0,0-2.032.354,6.475,6.475,0,0,0-1.876,1.034l-.227-3.342a18.4,18.4,0,0,1,2.684-.772,12.649,12.649,0,0,1,2.5-.262q3.427,0,4.786,1.43T92.476,101.82Zm-4.29,1.558q-.27-.028-.56-.042t-.743-.015a3.912,3.912,0,0,0-2.379.609,2.082,2.082,0,0,0-.808,1.77,2,2,0,0,0,.525,1.466,1.934,1.934,0,0,0,1.444.531,2.2,2.2,0,0,0,1.9-.843,4.482,4.482,0,0,0,.617-2.626Z" fill="#242424"/>
        <path id="Path_156528" data-name="Path 156528" d="M104.512,95.15v4.022a1.029,1.029,0,0,1-.17-.027,4.873,4.873,0,0,0-.878-.143,2.818,2.818,0,0,0-2.4,1,5.354,5.354,0,0,0-.757,3.207v7.222H95.9V98.662q0-1.3-.035-1.982t-.106-1.274h4.021a.629.629,0,0,1,.015.156q.113,1.359.113,2v.453a4.459,4.459,0,0,1,1.529-2.132,3.782,3.782,0,0,1,2.323-.786q.24,0,.679.043A.244.244,0,0,0,104.512,95.15Z" fill="#242424"/>
        <path id="Path_156529" data-name="Path 156529" d="M109.964,104.114a4.124,4.124,0,0,0,1.083,2.669,3.54,3.54,0,0,0,2.57.885,6.976,6.976,0,0,0,1.954-.283,9.243,9.243,0,0,0,2-.864l.142,3.215a12.078,12.078,0,0,1-2.322.757,11.135,11.135,0,0,1-2.379.263,7.266,7.266,0,0,1-5.494-2.032,7.909,7.909,0,0,1-1.954-5.714,8.8,8.8,0,0,1,1.777-5.735,5.711,5.711,0,0,1,4.651-2.181,5.8,5.8,0,0,1,4.773,2.1,9.2,9.2,0,0,1,1.7,5.934c0,.265,0,.463-.008.6s-.012.26-.02.382Zm4.4-2.435c0-.152.005-.3.015-.447s.014-.223.014-.233a3.627,3.627,0,0,0-.552-2.152,1.81,1.81,0,0,0-1.558-.765,1.934,1.934,0,0,0-1.714.863,5.649,5.649,0,0,0-.693,2.734Z" fill="#242424"/>
      </g>
    </g>
    <g id="Group_52748" data-name="Group 52748">
      <path id="Path_108996" data-name="Path 108996" d="M43.475,58.626a6.344,6.344,0,0,1-4.5-1.86L25.223,43.024a24.713,24.713,0,0,1,0-34.918l.888-.888a24.714,24.714,0,0,1,34.911,0l.148.155L64.489,10.9A6.374,6.374,0,0,1,55.3,19.731c-.042-.044-.084-.089-.125-.134l-3.235-3.46a11.979,11.979,0,0,0-16.807.07l-.888.888a11.938,11.938,0,0,0,0,16.878L47.985,47.68a6.342,6.342,0,0,1-4.5,10.888Z" fill="#3eb2e4"/>
      <path id="Path_108997" data-name="Path 108997" d="M59.288,75.588a6.378,6.378,0,0,1-4.517-10.874L85.306,34.067a11.98,11.98,0,0,0,0-16.913l-.888-.888a11.945,11.945,0,0,0-16.772-.021L64.418,19.7a6.377,6.377,0,0,1-9.485-8.527c.053-.058.107-.116.162-.173l3.319-3.524.148-.155A24.665,24.665,0,0,1,93.444,7.3l.029.029.888.888a24.714,24.714,0,0,1,0,34.911L63.833,73.766a6.342,6.342,0,0,1-4.545,1.825Z" fill="#40e2d1"/>
      <path id="Path_108998" data-name="Path 108998" d="M59.232,75.589A6.378,6.378,0,0,1,54.722,64.7L84.256,35.167a6.376,6.376,0,1,1,9.117,8.916c-.032.033-.064.065-.1.1L63.745,73.721a6.393,6.393,0,0,1-4.51,1.867Z" fill="#99e570"/>
    </g>
  </g>
</svg>
